<svg id="visual" viewBox="0 0 900 600" width="900" height="600" xmlns="http://www.w3.org/2000/svg" xmlns:xlink="http://www.w3.org/1999/xlink" version="1.1"><rect x="0" y="0" width="900" height="600" fill="#060E14"></rect><g transform="translate(429.6556602787352 287.2045600473466)"><path d="M112.3 -165.8C136.9 -136.8 142.2 -92.3 165.4 -47.5C188.6 -2.6 229.8 42.7 234.7 91.2C239.5 139.6 207.9 191.2 162.7 213.6C117.6 236.1 58.8 229.6 11.6 213.7C-35.7 197.7 -71.3 172.5 -95.1 143.1C-118.9 113.6 -130.8 80 -151.3 43C-171.8 6 -201 -34.4 -193.2 -64.1C-185.4 -93.8 -140.6 -112.8 -102.2 -137.4C-63.9 -161.9 -31.9 -192 6 -200.2C43.9 -208.4 87.8 -194.8 112.3 -165.8" fill="#224841"></path></g></svg>