<svg id="visual" viewBox="0 0 900 600" width="900" height="600" xmlns="http://www.w3.org/2000/svg" xmlns:xlink="http://www.w3.org/1999/xlink" version="1.1"><rect x="0" y="0" width="900" height="600" fill="#060E14"></rect><defs><linearGradient id="grad1_0" x1="33.3%" y1="0%" x2="100%" y2="100%"><stop offset="20%" stop-color="#060e14" stop-opacity="1"></stop><stop offset="80%" stop-color="#060e14" stop-opacity="1"></stop></linearGradient></defs><defs><linearGradient id="grad2_0" x1="0%" y1="0%" x2="66.7%" y2="100%"><stop offset="20%" stop-color="#060e14" stop-opacity="1"></stop><stop offset="80%" stop-color="#060e14" stop-opacity="1"></stop></linearGradient></defs><g transform="translate(900, 0)"><path d="M0 540.8C-20.4 493.2 -40.9 445.6 -71.3 450.4C-101.8 455.1 -142.3 512.3 -165 507.9C-187.7 503.5 -192.6 437.6 -206.1 404.5C-219.6 371.5 -241.7 371.3 -269.2 370.5C-296.7 369.8 -329.5 368.4 -361.3 361.3C-393.2 354.2 -424 341.3 -437.5 317.9C-451.1 294.5 -447.4 260.6 -460.7 234.7C-473.9 208.9 -504.3 191.1 -510.7 165.9C-517.2 140.8 -499.7 108.2 -500.8 79.3C-501.8 50.4 -521.3 25.2 -540.8 0L0 0Z" fill="#224"></path></g><g transform="translate(0, 600)"><path d="M0 -540.8C23.6 -501.8 47.1 -462.8 71.5 -451.4C95.9 -439.9 121.1 -456.1 153 -470.8C184.9 -485.5 223.5 -498.7 245.5 -481.9C267.6 -465.1 273.2 -418.2 278 -382.7C282.9 -347.1 287 -322.9 316.1 -316.1C345.1 -309.3 399.1 -319.9 420.7 -305.6C442.3 -291.4 431.4 -252.2 441 -224.7C450.7 -197.3 480.9 -181.6 486.9 -158.2C493 -134.8 475 -103.7 480 -76C485 -48.4 512.9 -24.2 540.8 0L0 0Z" fill="#224"></path></g></svg>